<svg width="171" height="10" viewBox="0 0 171 10" fill="none" xmlns="http://www.w3.org/2000/svg">
<path d="M0.758523 9V0.272727H6.6392V1.79403H2.60369V3.87358H6.33665V5.39489H2.60369V7.47869H6.65625V9H0.758523ZM15.4059 0.272727V9H13.8121L10.0153 3.5071H9.95135V9H8.10618V0.272727H9.7255L13.4925 5.76136H13.5692V0.272727H15.4059ZM21.6648 2.78267C21.6307 2.43892 21.4844 2.17187 21.2259 1.98153C20.9673 1.79119 20.6165 1.69602 20.1733 1.69602C19.8722 1.69602 19.6179 1.73864 19.4105 1.82386C19.2031 1.90625 19.044 2.02131 18.9332 2.16903C18.8253 2.31676 18.7713 2.48438 18.7713 2.67188C18.7656 2.82812 18.7983 2.96449 18.8693 3.08097C18.9432 3.19744 19.044 3.2983 19.1719 3.38352C19.2997 3.46591 19.4474 3.53835 19.6151 3.60085C19.7827 3.66051 19.9616 3.71165 20.152 3.75426L20.9361 3.94176C21.3168 4.02699 21.6662 4.14062 21.9844 4.28267C22.3026 4.42472 22.5781 4.59943 22.8111 4.80682C23.044 5.0142 23.2244 5.25852 23.3523 5.53977C23.483 5.82102 23.5497 6.14347 23.5526 6.5071C23.5497 7.04119 23.4134 7.50426 23.1435 7.89631C22.8764 8.28551 22.4901 8.58807 21.9844 8.80398C21.4815 9.01705 20.875 9.12358 20.1648 9.12358C19.4602 9.12358 18.8466 9.01562 18.3239 8.79972C17.804 8.58381 17.3977 8.2642 17.1051 7.84091C16.8153 7.41477 16.6634 6.88778 16.6491 6.25994H18.4347C18.4545 6.55256 18.5384 6.79687 18.6861 6.9929C18.8366 7.18608 19.0369 7.33239 19.2869 7.43182C19.5398 7.52841 19.8253 7.5767 20.1435 7.5767C20.456 7.5767 20.7273 7.53125 20.9574 7.44034C21.1903 7.34943 21.3707 7.22301 21.4986 7.06108C21.6264 6.89915 21.6903 6.71307 21.6903 6.50284C21.6903 6.30682 21.6321 6.14205 21.5156 6.00852C21.402 5.875 21.2344 5.76136 21.0128 5.66761C20.794 5.57386 20.5256 5.48864 20.2074 5.41193L19.2571 5.1733C18.5213 4.99432 17.9403 4.71449 17.5142 4.33381C17.0881 3.95312 16.8764 3.44034 16.8793 2.79545C16.8764 2.26705 17.017 1.8054 17.3011 1.41051C17.5881 1.01562 17.9815 0.707386 18.4815 0.485795C18.9815 0.264204 19.5497 0.153409 20.1861 0.153409C20.8338 0.153409 21.3991 0.264204 21.8821 0.485795C22.3679 0.707386 22.7457 1.01562 23.0156 1.41051C23.2855 1.8054 23.4247 2.26278 23.4332 2.78267H21.6648ZM24.7937 9V0.272727H30.6744V1.79403H26.6388V3.87358H30.3718V5.39489H26.6388V7.47869H30.6914V9H24.7937ZM32.1413 0.272727H34.4169L36.8203 6.13636H36.9226L39.326 0.272727H41.6016V9H39.8118V3.3196H39.7393L37.4808 8.95739H36.2621L34.0036 3.2983H33.9311V9H32.1413V0.272727ZM43.1218 9V0.272727H46.6161C47.2582 0.272727 47.7937 0.367898 48.2227 0.558239C48.6516 0.74858 48.9741 1.01278 49.19 1.35085C49.4059 1.68608 49.5138 2.07244 49.5138 2.50994C49.5138 2.85085 49.4457 3.15057 49.3093 3.40909C49.1729 3.66477 48.9854 3.875 48.7468 4.03977C48.511 4.2017 48.2411 4.31676 47.9371 4.38494V4.47017C48.2695 4.48437 48.5806 4.57812 48.8704 4.75142C49.163 4.92472 49.4002 5.16761 49.582 5.48011C49.7638 5.78977 49.8548 6.15909 49.8548 6.58807C49.8548 7.05114 49.7397 7.46449 49.5096 7.82812C49.2823 8.18892 48.9457 8.47443 48.4996 8.68466C48.0536 8.89489 47.5039 9 46.8505 9H43.1218ZM44.967 7.49148H46.4712C46.9854 7.49148 47.3604 7.39347 47.5962 7.19744C47.832 6.99858 47.9499 6.73437 47.9499 6.40483C47.9499 6.16335 47.8917 5.95028 47.7752 5.76562C47.6587 5.58097 47.4925 5.43608 47.2766 5.33097C47.0636 5.22585 46.8093 5.1733 46.5138 5.1733H44.967V7.49148ZM44.967 3.92472H46.3349C46.5877 3.92472 46.8121 3.88068 47.0082 3.79261C47.207 3.7017 47.3633 3.57386 47.4769 3.40909C47.5934 3.24432 47.6516 3.04688 47.6516 2.81676C47.6516 2.50142 47.5394 2.24716 47.315 2.05398C47.0934 1.8608 46.7781 1.7642 46.369 1.7642H44.967V3.92472ZM51.0554 9V0.272727H52.9006V7.47869H56.642V9H51.0554ZM57.864 9V0.272727H63.7447V1.79403H59.7092V3.87358H63.4421V5.39489H59.7092V7.47869H63.7617V9H57.864ZM67.989 9V0.272727H71.4322C72.0941 0.272727 72.658 0.399148 73.1239 0.651989C73.5898 0.901989 73.945 1.25 74.1893 1.69602C74.4364 2.1392 74.56 2.65057 74.56 3.23011C74.56 3.80966 74.435 4.32102 74.185 4.7642C73.935 5.20739 73.5728 5.55256 73.0984 5.79972C72.6268 6.04687 72.0558 6.17045 71.3853 6.17045H69.1907V4.69176H71.087C71.4421 4.69176 71.7347 4.63068 71.9648 4.50852C72.1978 4.38352 72.3711 4.21165 72.4847 3.9929C72.6012 3.77131 72.6594 3.51705 72.6594 3.23011C72.6594 2.94034 72.6012 2.6875 72.4847 2.47159C72.3711 2.25284 72.1978 2.08381 71.9648 1.96449C71.7319 1.84233 71.4364 1.78125 71.0785 1.78125H69.8342V9H67.989ZM83.7784 4.63636C83.7784 5.58807 83.598 6.39773 83.2372 7.06534C82.8793 7.73295 82.3906 8.2429 81.7713 8.59517C81.1548 8.9446 80.4616 9.11932 79.6918 9.11932C78.9162 9.11932 78.2202 8.94318 77.6037 8.59091C76.9872 8.23864 76.5 7.72869 76.142 7.06108C75.7841 6.39347 75.6051 5.58523 75.6051 4.63636C75.6051 3.68466 75.7841 2.875 76.142 2.20739C76.5 1.53977 76.9872 1.03125 77.6037 0.681818C78.2202 0.329545 78.9162 0.153409 79.6918 0.153409C80.4616 0.153409 81.1548 0.329545 81.7713 0.681818C82.3906 1.03125 82.8793 1.53977 83.2372 2.20739C83.598 2.875 83.7784 3.68466 83.7784 4.63636ZM81.9077 4.63636C81.9077 4.01989 81.8153 3.5 81.6307 3.0767C81.4489 2.65341 81.1918 2.33239 80.8594 2.11364C80.527 1.89489 80.1378 1.78551 79.6918 1.78551C79.2457 1.78551 78.8565 1.89489 78.5241 2.11364C78.1918 2.33239 77.9332 2.65341 77.7486 3.0767C77.5668 3.5 77.4759 4.01989 77.4759 4.63636C77.4759 5.25284 77.5668 5.77273 77.7486 6.19602C77.9332 6.61932 78.1918 6.94034 78.5241 7.15909C78.8565 7.37784 79.2457 7.48722 79.6918 7.48722C80.1378 7.48722 80.527 7.37784 80.8594 7.15909C81.1918 6.94034 81.4489 6.61932 81.6307 6.19602C81.8153 5.77273 81.9077 5.25284 81.9077 4.63636ZM90.5359 0.272727H92.381V5.94034C92.381 6.5767 92.229 7.13352 91.9251 7.6108C91.6239 8.08807 91.2021 8.46023 90.6594 8.72727C90.1168 8.99148 89.4847 9.12358 88.7631 9.12358C88.0387 9.12358 87.4052 8.99148 86.8626 8.72727C86.32 8.46023 85.8981 8.08807 85.5969 7.6108C85.2958 7.13352 85.1452 6.5767 85.1452 5.94034V0.272727H86.9904V5.78267C86.9904 6.11506 87.0629 6.41051 87.2077 6.66903C87.3555 6.92756 87.5629 7.13068 87.8299 7.27841C88.0969 7.42614 88.408 7.5 88.7631 7.5C89.1211 7.5 89.4322 7.42614 89.6964 7.27841C89.9634 7.13068 90.1694 6.92756 90.3143 6.66903C90.462 6.41051 90.5359 6.11506 90.5359 5.78267V0.272727ZM93.8991 9V0.272727H97.3423C98.0014 0.272727 98.5639 0.390625 99.0298 0.62642C99.4986 0.859375 99.8551 1.19034 100.099 1.61932C100.347 2.04545 100.47 2.54687 100.47 3.12358C100.47 3.70312 100.345 4.2017 100.095 4.61932C99.8452 5.03409 99.483 5.35227 99.0085 5.57386C98.5369 5.79545 97.9659 5.90625 97.2955 5.90625H94.9901V4.4233H96.9972C97.3494 4.4233 97.642 4.375 97.875 4.27841C98.108 4.18182 98.2813 4.03693 98.3949 3.84375C98.5114 3.65057 98.5696 3.41051 98.5696 3.12358C98.5696 2.83381 98.5114 2.58949 98.3949 2.39062C98.2813 2.19176 98.1065 2.04119 97.8707 1.93892C97.6378 1.83381 97.3438 1.78125 96.9886 1.78125H95.7443V9H93.8991ZM98.6122 5.02841L100.781 9H98.7443L96.6222 5.02841H98.6122ZM104.551 9V0.272727H106.397V7.47869H110.138V9H104.551ZM113.087 9H111.11L114.123 0.272727H116.5L119.509 9H117.532L115.346 2.26705H115.277L113.087 9ZM112.963 5.5696H117.634V7.00994H112.963V5.5696ZM130.636 0.272727V9H129.043L125.246 3.5071H125.182V9H123.337V0.272727H124.956L128.723 5.76136H128.8V0.272727H130.636ZM133.665 9H131.688L134.701 0.272727H137.078L140.087 9H138.11L135.924 2.26705H135.855L133.665 9ZM133.542 5.5696H138.212V7.00994H133.542V5.5696ZM139.739 1.79403V0.272727H146.906V1.79403H144.234V9H142.411V1.79403H139.739ZM153.477 0.272727H155.322V5.94034C155.322 6.5767 155.17 7.13352 154.866 7.6108C154.565 8.08807 154.143 8.46023 153.601 8.72727C153.058 8.99148 152.426 9.12358 151.705 9.12358C150.98 9.12358 150.347 8.99148 149.804 8.72727C149.261 8.46023 148.839 8.08807 148.538 7.6108C148.237 7.13352 148.087 6.5767 148.087 5.94034V0.272727H149.932V5.78267C149.932 6.11506 150.004 6.41051 150.149 6.66903C150.297 6.92756 150.504 7.13068 150.771 7.27841C151.038 7.42614 151.349 7.5 151.705 7.5C152.063 7.5 152.374 7.42614 152.638 7.27841C152.905 7.13068 153.111 6.92756 153.256 6.66903C153.403 6.41051 153.477 6.11506 153.477 5.78267V0.272727ZM156.841 9V0.272727H160.284C160.943 0.272727 161.505 0.390625 161.971 0.62642C162.44 0.859375 162.797 1.19034 163.041 1.61932C163.288 2.04545 163.412 2.54687 163.412 3.12358C163.412 3.70312 163.287 4.2017 163.037 4.61932C162.787 5.03409 162.424 5.35227 161.95 5.57386C161.478 5.79545 160.907 5.90625 160.237 5.90625H157.931V4.4233H159.939C160.291 4.4233 160.583 4.375 160.816 4.27841C161.049 4.18182 161.223 4.03693 161.336 3.84375C161.453 3.65057 161.511 3.41051 161.511 3.12358C161.511 2.83381 161.453 2.58949 161.336 2.39062C161.223 2.19176 161.048 2.04119 160.812 1.93892C160.579 1.83381 160.285 1.78125 159.93 1.78125H158.686V9H156.841ZM161.554 5.02841L163.723 9H161.686L159.564 5.02841H161.554ZM164.716 9V0.272727H170.596V1.79403H166.561V3.87358H170.294V5.39489H166.561V7.47869H170.613V9H164.716Z" fill="#fff"/>
</svg>
